<?xml version="1.0" encoding="utf-8"?>
<!-- Uploaded to: SVG Repo, www.svgrepo.com, Generator: SVG Repo Mixer Tools -->
<svg fill="#000000" width="800px" height="800px" viewBox="0 0 32 32" version="1.1" xmlns="http://www.w3.org/2000/svg">
<title>leaflet</title>
<path d="M22.938 2.076l-11.522 26.974-0.717-0.721zM23.11 1.004c-0.444 0.717-10.537 5.923-13.566 10.808-3.029 4.886-3.894 8.732-2.795 12.349 1.098 3.615 3.198 3.453 4.394 4.645 1.026 1.314 2.609 2.151 4.389 2.151 0.362 0 0.716-0.035 1.059-0.101l-0.035 0.006c3.395-0.766 6.667-3.032 8.295-9.382 0.533-2.171 0.839-4.664 0.839-7.228 0-2.755-0.353-5.427-1.017-7.974l0.049 0.219c-0.492-2.18-1.046-4.016-1.712-5.798l0.1 0.305z"></path>
</svg>